<defs>
<font horiz-adv-x="402" ><font-face
    font-family="josefinsans-regular"
    units-per-em="1000"
    panose-1="0 0 0 0 0 0 0 0 0 0"
    ascent="750"
    descent="-250"
    alphabetic="0" />
<missing-glyph horiz-adv-x="300" />
<glyph unicode=" " glyph-name="space" horiz-adv-x="300" />
<glyph unicode="!" glyph-name="exclam" horiz-adv-x="201" d="M100 22Q88 22 78 31T68 55Q68 69 78 78T100 88Q112 88 122 79T132 55Q132 41 122 32T100 22V22ZM79 750H121V166H79V750Z" />
<glyph unicode="&quot;" glyph-name="quotedbl" horiz-adv-x="310" d="M196 472V720H240Q239 657 238 596T236 472H196ZM63 472V720H107Q106 657 105 596T103 472H63Z" />
<glyph unicode="#" glyph-name="numbersign" horiz-adv-x="571" d="M198 393Q194 357 190 322T182 251H324Q328 286 332 321T340 393H198ZM294 0L318 210H176L152 0H110L134 210H27Q29 221 30 230T32 251H140Q144 286 148 321T156 393H50Q52 403 52 413T54 433H161Q168
486 174 538T187 643H229Q222 590 216 538T203 433H345Q352 486 358 538T371 643H413Q406 590 400 538T387 433H510Q508 423 508 413T506 393H382Q378 357 374 322T366 251H487Q486 240 485 231T483 210H360L336 0H294Z" />
<glyph unicode="$" glyph-name="dollar" horiz-adv-x="567" d="M131 524Q131 473 158 448T233 406Q242 400 251 399V662Q221 659 199 647T161 615T139 573T131 524ZM442 184Q442 220 429 245T395 288T347 318T293 339V35Q323 38 350 49T397 80T430 125T442 184ZM432
641Q425 633 420 625T408 609Q392 623 363 640T293 662V383Q324 372 358 358T420 321T466 266T484 186Q484 144 469 110T428 51T368 11T293 -7V-68H251V-6Q216 -3 187 7T134 32T93 61T66 89L94 117Q107 104 123 90T158 64T201 44T251 33V354Q247 356 237 360Q218
366 193 376T146 405T107 450T90 517Q88 548 96 580T124 638T175 682T251 703V764H293V702Q327 700 361 686T432 641Z" />
<glyph unicode="%" glyph-name="percent" horiz-adv-x="726" d="M447 112Q447 80 468 59T522 37Q554 37 575 58T597 112Q597 143 576 165T522 187Q490 187 469 165T447 112ZM522 -4Q498 -4 477 5T440 29T415 66T405 112Q405 136 414 157T439 193T476 218T522 227Q546
227 567 218T604 194T629 157T639 112Q639 88 630 67T604 30T567 5T522 -4ZM143 388Q143 357 164 336T218 314Q250 314 271 335T293 388Q293 420 272 441T218 463Q186 463 165 442T143 388ZM218 273Q194 273 173 282T136 306T111 343T101 389Q101 413 110 434T135
470T172 495T218 504Q242 504 263 495T300 471T325 434T335 389Q335 365 326 344T300 307T263 282T218 273ZM194 0Q269 126 343 250T492 500H538Q463 374 389 250T240 0H194Z" />
<glyph unicode="&amp;" glyph-name="ampersand" horiz-adv-x="700" d="M147 187Q147 155 159 127T191 78T240 45T302 33Q346 33 380 53T435 107Q399 166 363 224T292 341Q261 338 235 326T189 293T158 246T147 187ZM499 227V187Q499 146 480 108Q497 82 512 56T545
3Q537 -2 529 -8T513 -19Q499 3 486 25T459 68Q432 33 391 13T302 -8Q261 -8 226 7T164 49T122 110T106 187Q106 223 118 255T152 313T203 356T268 379Q250 408 232 437T197 496Q179 526 172 558T169 621T192 679T243 726Q271 743 300 746T358 745T410 729T454
706Q449 697 446 689T437 672Q419 682 399 691T357 705T313 708T270 693Q216 659 210 608T234 508Q287 423 338 338T443 168Q450 186 454 204T461 243V285Q464 321 473 339T496 366T527 374T562 375H603V334H551Q520 334 510 311T499 227Z" />
<glyph unicode="&apos;" glyph-name="quotesingle" horiz-adv-x="153" d="M57 472V720H101Q100 657 99 596T97 472H57Z" />
<glyph unicode="(" glyph-name="parenleft" horiz-adv-x="406" d="M134 292Q134 367 148 435T185 561T237 666T299 747Q307 741 314 736T330 724Q301 691 274 646T224 546T189 427T176 292Q176 221 189 157T224 38T273 -62T330 -140Q322 -146 315 -151T299 -163Q267
-130 238 -83T185 23T148 149T134 292Z" />
<glyph unicode=")" glyph-name="parenright" horiz-adv-x="400" d="M292 290Q292 215 278 147T241 21T188 -84T127 -165Q119 -159 112 -154T96 -142Q125 -109 152 -64T202 36T237 155T250 290Q250 361 237 425T202 544T153 644T96 722Q104 728 111 733T127 745Q158
712 188 665T241 559T278 433T292 290Z" />
<glyph unicode="*" glyph-name="asterisk" horiz-adv-x="335" d="M209 575Q232 562 255 549T302 522Q296 513 291 504T279 484Q256 498 234 511T188 538Q187 512 187 486T186 434H146V538Q123 525 101 513T56 486Q50 496 45 505T33 525Q56 538 79 550T125 576Q102
590 80 603T34 630Q42 647 54 665Q77 651 100 638T146 611V720H190Q190 693 190 666T189 611Q212 625 236 638T283 664Q288 656 293 647T303 629Q279 615 256 602T209 575Z" />
<glyph unicode="+" glyph-name="plus" horiz-adv-x="543" d="M245 51V211H86V252H245V411H287V252H446V211H287V51H245Z" />
<glyph unicode="," glyph-name="comma" horiz-adv-x="200" d="M141 86Q119 34 98 -17T55 -120H17Q37 -68 55 -17T94 86H141Z" />
<glyph unicode="-" glyph-name="hyphen" horiz-adv-x="300" d="M53 169V210H237V169H53Z" />
<glyph unicode="." glyph-name="period" horiz-adv-x="163" d="M53 33Q53 47 63 56T86 66Q98 66 108 57T118 33Q118 19 108 10T86 0Q73 0 63 9T53 33Z" />
<glyph unicode="/" glyph-name="slash" horiz-adv-x="345" d="M17 -19Q87 171 156 358T295 736H337Q267 546 198 359T59 -19H17Z" />
<glyph unicode="0" glyph-name="zero" horiz-adv-x="616" d="M36 327Q36 386 53 445T104 552T189 628T308 658Q375 658 425 628T508 550T557 443T573 324Q573 252 551 191T491 86T404 18T302 -7Q249 -7 201 18T116 88T58 194T36 327ZM79 327Q79 262 97 208T147
116T218 55T303 33Q347 33 388 54T460 113T511 204T531 323Q531 382 516 435T472 528T401 593T307 617Q254 617 212 594T141 531T95 438T79 327Z" />
<glyph unicode="1" glyph-name="one" horiz-adv-x="259" d="M34 609V650H171V0H129V609H34Z" />
<glyph unicode="2" glyph-name="two" horiz-adv-x="505" d="M155 41H468V0H53Q116 62 175 121T281 237T355 346T383 446Q383 495 369 527T333 580T286 608T238 617Q193 617 165 601T120 562T97 512T90 463Q90 428 100 401T129 353Q123 347 117 341T104 328Q78
351 63 387T48 463Q48 503 60 538T97 600T156 642T238 658Q280 658 314 643T373 600T411 537T425 458Q425 404 401 351T337 245T250 142T155 41Z" />
<glyph unicode="3" glyph-name="three" horiz-adv-x="515" d="M168 347Q214 413 259 478T351 609H103V650H426L249 404Q289 401 324 385T386 341T428 279T443 201Q443 158 427 120T382 54T315 9T233 -8Q187 -8 148 10T79 60L110 91Q132 65 163 49T231 33Q266 33
297 46T351 83T387 136T401 201Q401 235 388 265T351 319T297 355T231 368Q214 368 198 363T168 347Z" />
<glyph unicode="4" glyph-name="four" horiz-adv-x="515" d="M361 535Q301 457 242 380T122 224H361V535ZM37 183Q129 302 220 420T403 658V224H500V183H403V0H361V183H37Z" />
<glyph unicode="5" glyph-name="five" horiz-adv-x="543" d="M143 321V650H430V609H185V392Q201 399 218 403T254 407Q297 407 335 391T402 347T448 282T465 201Q465 158 448 120T403 54T336 9T254 -8Q212 -8 176 7T110 50Q118 57 125 64T141 78Q163 57 191 45T253
33Q288 33 319 46T373 83T409 136T423 201Q423 235 410 265T373 317T319 353T253 366Q218 366 189 354T143 321Z" />
<glyph unicode="6" glyph-name="six" horiz-adv-x="520" d="M91 199Q91 164 104 134T140 82T193 46T258 33Q292 33 323 46T377 81T413 134T427 199Q427 233 414 263T377 317T323 353T258 366Q223 366 193 353T140 317T104 264T91 199ZM49 195Q49 267 80 329T159
446T266 547T381 635Q387 627 394 618T408 601Q301 531 240 468T152 358Q171 380 198 393T258 407Q301 407 339 391T406 346T451 280T468 199Q468 156 452 119T407 53T340 9T258 -8Q216 -8 178 8T112 51T67 116T49 195Z" />
<glyph unicode="7" glyph-name="seven" horiz-adv-x="469" d="M14 609V650H420Q347 486 274 325T128 0H79Q148 153 216 304T354 609H14Z" />
<glyph unicode="8" glyph-name="eight" horiz-adv-x="510" d="M145 506Q145 485 153 467T177 435T211 415T254 407Q300 407 330 435T361 506Q361 528 353 548T331 583T297 608T254 617Q231 617 212 608T177 584T154 548T145 506ZM89 201Q89 167 101 137T136 83T188
46T253 32Q288 32 319 45T373 82T409 136T423 201Q423 235 410 264T374 316T320 352T255 366Q220 366 190 353T137 318T102 265T89 201ZM46 201Q46 267 83 317T178 390Q144 406 124 438T103 510Q103 540 114 567T146 614T194 646T252 658Q283 658 311 646T359 614T391
566T403 508Q403 469 383 438T330 390Q359 379 384 361T427 318T455 264T465 201Q465 158 448 120T403 54T336 9T254 -8Q211 -8 174 8T108 53T63 120T46 201Z" />
<glyph unicode="9" glyph-name="nine" horiz-adv-x="525" d="M420 427Q420 461 407 491T372 544T319 580T254 593Q219 593 189 580T135 545T99 492T85 427Q85 392 98 362T135 309T188 273T254 260Q288 260 318 273T371 309T407 362T420 427ZM463 427Q463 356 432
294T353 178T245 78T131 -8Q124 0 118 8T104 25Q210 96 271 159T360 269Q341 246 313 233T253 220Q210 220 172 236T105 280T60 346T43 427Q43 470 59 507T104 573T171 617T253 634Q296 634 334 618T401 573T446 508T463 427Z" />
<glyph unicode=":" glyph-name="colon" horiz-adv-x="175" d="M52 283Q52 297 62 306T85 316Q98 316 107 307T117 283Q117 269 108 260T85 250Q72 250 62 259T52 283ZM52 33Q52 47 62 56T85 66Q98 66 107 57T117 33Q117 19 108 10T85 0Q72 0 62 9T52 33Z" />
<glyph unicode=";" glyph-name="semicolon" horiz-adv-x="201" d="M78 283Q78 297 88 306T111 316Q124 316 134 307T144 283Q144 269 134 260T111 250Q98 250 88 259T78 283ZM127 86Q105 34 84 -17T41 -120H2Q22 -68 40 -17T79 86H127Z" />
<glyph unicode="&lt;" glyph-name="less" horiz-adv-x="680" d="M553 40V-15Q443 48 334 111T115 238Q225 301 334 364T553 491V436Q467 386 382 337T209 238Q296 188 381 139T553 40Z" />
<glyph unicode="=" glyph-name="equal" horiz-adv-x="708" d="M606 176V135H100V176H606ZM606 370V329H100V370H606Z" />
<glyph unicode="&gt;" glyph-name="greater" horiz-adv-x="650" d="M115 -15V40Q202 90 287 139T459 238Q373 288 288 337T115 436V491Q225 428 334 365T553 238Q443 175 334 112T115 -15Z" />
<glyph unicode="?" glyph-name="question" horiz-adv-x="452" d="M72 578Q63 582 54 585T35 591Q44 617 60 642T99 687T154 719T226 732Q267 732 303 717T365 675T407 613T422 537Q422 483 396 442T324 368Q307 355 291 345T261 323T240 291T232 242V164H190V261Q190
292 201 311T229 346T269 374T316 408Q349 435 364 467T380 537Q380 570 369 598T336 647T287 679T226 691Q168 691 129 661T72 578ZM211 15Q199 15 189 24T178 48Q178 62 188 71T211 81Q223 81 233 72T243 48Q243 34 233 25T211 15Z" />
<glyph unicode="@" glyph-name="at" horiz-adv-x="990" d="M333 188Q333 156 345 128T377 79T426 46T488 34Q521 34 549 46T598 79T631 128T643 188Q643 220 631 248T599 298T550 331T488 343Q455 343 427 331T378 298T345 249T333 188ZM895 188Q892 131 877 95T840
37T790 8T737 0H647V40Q647 52 647 63T648 86Q641 69 627 52T592 22T545 1T488 -7Q447 -7 411 8T349 50T307 111T291 188Q291 228 306 263T348 325T411 367T488 383Q517 383 542 375T589 353T625 322T647 287Q647 309 648 331T651 375H685V40H741Q789 40 820 75T853
188Q853 264 825 331T747 447T631 525T489 554Q413 554 347 526T231 448T153 331T124 188Q124 112 152 46T230 -69T346 -147T489 -176Q549 -176 603 -158T704 -108Q711 -116 717 -123T729 -138Q679 -176 617 -196T489 -217Q405 -217 331 -185T202 -98T114 31T82
189Q82 273 114 347T201 476T331 563T489 595Q573 595 647 563T776 476T863 347T895 188Z" />
<glyph unicode="A" glyph-name="A" horiz-adv-x="740" d="M379 611Q377 618 375 625T370 639Q344 563 312 489T247 340H494Q465 409 437 476T379 611ZM680 0H638Q606 75 575 150T511 300H230Q198 225 167 150T103 0H60Q138 184 215 366T370 732Q448 548 525 366T680 0Z" />
<glyph unicode="B" glyph-name="B" horiz-adv-x="535" d="M115 660V372H247Q318 372 360 413T402 522Q402 559 391 585T358 628T308 652T243 660H115ZM115 332V40H248Q285 40 317 49T374 76T413 120T428 183Q428 222 412 250T368 296T305 323T231 332H115ZM74
0V700H234Q281 700 319 690T385 659T428 605T443 525Q443 463 413 416T319 352Q349 346 376 332T423 296T456 245T469 180Q469 135 451 102T403 46T333 12T252 0H74Z" />
<glyph unicode="C" glyph-name="C" horiz-adv-x="670" d="M578 76L601 42Q561 19 516 6T419 -8Q345 -8 280 20T167 96T90 210T62 349Q62 423 90 488T166 602T280 679T419 708Q470 708 515 695T602 658Q596 650 591 641T579 624Q544 645 504 656T419 668Q354 668
297 643T196 574T129 472T104 348Q104 283 128 226T196 125T295 57T417 32Q462 32 502 43T578 76Z" />
<glyph unicode="D" glyph-name="D" horiz-adv-x="652" d="M76 700H223Q295 700 359 676T471 606T547 495T575 350Q575 291 555 229T488 116T369 33T189 0H76V700ZM117 660V41H204Q287 41 349 67T452 137T513 235T534 350Q534 421 510 478T443 576T344 638T223 660H117Z" />
<glyph unicode="E" glyph-name="E" horiz-adv-x="601" d="M85 0V700H500V660H126V373H461V333H126V40H514V0H85Z" />
<glyph unicode="F" glyph-name="F" horiz-adv-x="587" d="M85 0V700H500V660H126V373H461V333H126V0H85Z" />
<glyph unicode="G" glyph-name="G" horiz-adv-x="682" d="M415 260V300H547Q577 300 589 289T601 249V42Q561 19 516 6T419 -8Q345 -8 280 20T167 96T90 210T62 349Q62 423 90 488T166 602T280 679T419 708Q470 708 515 695T602 658Q596 650 591 641T579 624Q544
645 504 656T419 668Q354 668 297 643T196 574T129 472T104 348Q104 283 128 226T196 125T295 57T417 32Q493 32 559 66V192V234Q559 246 554 253T532 260H415Z" />
<glyph unicode="H" glyph-name="H" horiz-adv-x="700" d="M94 0V700H135V373H565V700H609Q608 524 608 350T606 0H565V333H135V0H94Z" />
<glyph unicode="I" glyph-name="I" horiz-adv-x="248" d="M104 700H145V0H104V700Z" />
<glyph unicode="J" glyph-name="J" horiz-adv-x="312" d="M18 -143V-103Q54 -101 84 -87T136 -48T170 12T183 93V700H225V90Q225 34 209 -8T165 -80T99 -126T18 -143Z" />
<glyph unicode="K" glyph-name="K" horiz-adv-x="600" d="M556 0H505Q427 99 350 196T195 394Q172 373 151 353T108 311V0H67V700H108V386Q108 378 108 371T106 356Q111 362 115 367T124 377Q209 458 293 538T463 700H517L223 421Q308 315 390 211T556 0Z" />
<glyph unicode="L" glyph-name="L" horiz-adv-x="593" d="M85 0V700H126V40H514V0H85Z" />
<glyph unicode="M" glyph-name="M" horiz-adv-x="937" d="M100 732Q192 613 283 495T466 257Q558 376 649 494T832 732V0H790V446V575Q791 585 791 594T792 615Q713 505 631 400T466 187Q397 277 330 364T194 542L152 596Q149 601 146 605T140 615Q140 604 140
595T142 575V0H100V732Z" />
<glyph unicode="N" glyph-name="N" horiz-adv-x="813" d="M711 700V-32Q571 129 434 287T158 607Q153 614 149 620T139 633Q140 625 140 617T142 601V0H100V732Q240 569 377 410T653 88Q658 81 662 75T672 62Q671 70 671 78T669 94V700H711Z" />
<glyph unicode="O" glyph-name="O" horiz-adv-x="840" d="M62 349Q62 423 90 488T166 602T280 679T419 708Q493 708 558 680T672 603T749 489T778 349Q778 275 750 210T673 97T559 20T419 -8Q345 -8 280 20T167 96T90 210T62 349ZM104 348Q104 282 128 225T196
125T296 57T418 32Q483 32 541 57T642 125T711 225T736 349Q736 415 711 473T643 574T542 643T419 668Q354 668 297 643T196 574T129 472T104 348Z" />
<glyph unicode="P" glyph-name="P" horiz-adv-x="464" d="M115 370H219Q271 370 305 384T360 420T389 467T397 517Q397 545 384 571T346 617T290 648T220 660H115V370ZM74 0V700H224Q255 700 292 690T361 658T416 601T438 517Q438 431 384 380T226 329H115V0H74Z" />
<glyph unicode="Q" glyph-name="Q" horiz-adv-x="842" d="M104 348Q104 283 128 226T196 125T295 57T417 32Q483 32 541 57T642 125T711 225T736 349Q736 415 711 473T643 574T542 643T419 668Q354 668 297 643T196 574T129 472T104 348ZM62 349Q62 423 90 488T166
602T280 679T419 708Q493 708 558 680T672 603T749 489T778 349Q778 298 764 251T725 165T665 93T587 40H800V0H493Q455 -8 419 -8Q345 -8 280 20T167 96T90 210T62 349Z" />
<glyph unicode="R" glyph-name="R" horiz-adv-x="505" d="M115 370H219Q271 370 305 384T360 420T389 467T397 517Q397 545 384 571T346 617T290 648T220 660H115V370ZM74 0V700H224Q255 700 292 690T361 658T416 601T438 517Q438 445 400 398T288 335Q328 250
367 167T446 0H401Q362 84 323 166T245 331Q236 330 228 330T210 329H115V0H74Z" />
<glyph unicode="S" glyph-name="S" horiz-adv-x="552" d="M432 641Q425 633 420 625T408 609Q399 617 386 626T356 644T317 658T270 664Q235 664 209 653T166 622T140 577T131 524Q131 495 140 475T166 440T206 416T256 396Q288 385 327 372T402 335T460 276T484
186Q484 142 468 106T423 45T356 6T274 -8Q235 -8 202 2T142 27T97 59T66 89L94 117Q108 103 126 88T165 61T213 40T269 32Q303 32 334 42T389 72T427 120T442 184Q442 229 422 258T373 306T308 337T243 359Q224 365 199 375T150 403T109 448T90 517Q88 550 97
583T129 643T186 687T271 704Q309 704 348 691T432 641Z" />
<glyph unicode="T" glyph-name="T" horiz-adv-x="553" d="M553 700V660H297V0H256V660H0V700H553Z" />
<glyph unicode="U" glyph-name="U" horiz-adv-x="652" d="M327 -8Q276 -8 233 7T159 51T110 125T92 226V700H133V229Q133 181 147 145T187 83T249 45T327 32Q369 32 404 45T466 83T507 144T522 229V700H564V226Q564 169 546 125T496 52T421 7T327 -8Z" />
<glyph unicode="V" glyph-name="V" horiz-adv-x="722" d="M632 700H674Q596 516 519 334T364 -32Q286 152 209 334T54 700H96Q161 546 225 395T355 89Q357 82 359 75T364 61Q366 68 368 75T373 89Q438 243 502 394T632 700Z" />
<glyph unicode="W" glyph-name="W" horiz-adv-x="1108" d="M1004 700H1046Q968 516 891 334T736 -32L559 385L550 412Q510 301 461 189T364 -32Q286 152 209 334T54 700H96Q161 546 225 394T355 89Q357 82 359 75T364 61Q398 161 442 260T529 457Q503 519 478
579T426 700H469Q533 546 597 394T727 89Q729 82 731 75T736 61Q738 68 740 75T745 89Q811 243 875 394T1004 700Z" />
<glyph unicode="X" glyph-name="X" horiz-adv-x="700" d="M324 359Q269 444 214 529T103 700H153Q201 627 248 554T343 408Q346 403 348 399T353 390Q356 395 358 399T363 408Q411 481 457 554T551 700H601Q545 613 490 527T379 354Q436 265 494 177T609 0H558L381
271Q373 283 366 297T349 323Q347 318 344 314T339 304Q290 228 242 153T144 0H93Q151 91 208 179T324 359Z" />
<glyph unicode="Y" glyph-name="Y" horiz-adv-x="638" d="M343 265V0H293V265Q228 374 164 482T34 700H85Q140 606 196 515T306 330Q309 322 312 316T318 302H319Q322 309 324 315T330 330Q386 423 440 514T550 700H601L343 265Z" />
<glyph unicode="Z" glyph-name="Z" horiz-adv-x="700" d="M170 700H611V660Q491 505 373 351T134 40H640V0H81V40Q201 196 319 350T558 660H163Q132 660 115 672T98 713V735H140V723Q140 711 146 706T170 700Z" />
<glyph unicode="[" glyph-name="bracketleft" horiz-adv-x="338" d="M83 -149V746H258V705H126V-108H258V-149H83Z" />
<glyph unicode="\" glyph-name="backslash" horiz-adv-x="346" d="M56 736Q126 546 195 359T334 -19H288Q218 171 149 358T10 736H56Z" />
<glyph unicode="]" glyph-name="bracketright" horiz-adv-x="342" d="M251 746V-149H76V-108H208V705H76V746H251Z" />
<glyph unicode="^" glyph-name="asciicircum" horiz-adv-x="470" d="M232 660Q262 615 292 570T352 479H319Q297 509 276 539T232 600Q210 570 189 540T145 479H112Q142 524 172 569T232 660Z" />
<glyph unicode="_" glyph-name="underscore" horiz-adv-x="600" d="M500 0H100V41H500V0Z" />
<glyph unicode="`" glyph-name="grave" horiz-adv-x="200" d="M14 612Q37 579 59 546T104 479H71Q46 512 21 545T-29 612H14Z" />
<glyph unicode="a" glyph-name="a" horiz-adv-x="503" d="M91 188Q91 156 103 128T135 79T184 46T246 34Q279 34 307 46T356 79T389 128T401 188Q401 220 389 248T356 298T307 331T246 343Q213 343 185 331T136 298T103 249T91 188ZM49 188Q49 228 64 263T106
325T169 367T246 383Q275 383 301 375T348 353T383 322T405 287Q405 309 406 331T409 375H443V0H405V45Q405 56 405 66T406 87Q400 70 386 53T351 23T304 1T246 -7Q205 -7 169 8T107 50T65 111T49 188Z" />
<glyph unicode="b" glyph-name="b" horiz-adv-x="529" d="M434 188Q434 220 422 248T390 298T341 331T279 343Q246 343 218 331T169 298T136 249T124 188Q124 156 136 128T168 79T217 46T279 34Q312 34 340 46T389 79T422 128T434 188ZM476 188Q476 147 461 112T419
50T356 9T279 -7Q248 -7 222 1T175 22T140 53T119 87Q119 76 119 66T120 45V0H82V750H124V333Q122 322 122 311T120 288Q126 305 141 322T177 352T224 374T279 383Q320 383 356 368T418 326T460 264T476 188Z" />
<glyph unicode="c" glyph-name="c" horiz-adv-x="388" d="M330 67Q337 59 343 52T356 36Q330 16 299 5T232 -7Q191 -7 156 8T94 50T52 111T36 188Q36 228 51 264T93 326T155 367T232 383Q268 383 300 372T357 340Q350 332 344 325T330 309Q310 325 286 334T232
343Q199 343 171 331T123 298T90 249T78 188Q78 156 90 128T122 79T171 46T232 34Q289 34 330 67Z" />
<glyph unicode="d" glyph-name="d" horiz-adv-x="524" d="M95 188Q95 156 107 128T139 79T188 46T249 34Q282 34 310 46T360 79T393 128T405 188Q405 220 393 248T360 298T311 331T249 343Q216 343 188 331T140 298T107 249T95 188ZM53 188Q53 228 68 263T109
325T172 367T249 383Q279 383 305 375T352 353T388 322T409 288Q408 299 407 310T405 333V750H446V0H409V45V87Q403 70 389 53T354 23T307 1T249 -7Q208 -7 172 8T110 50T68 111T53 188Z" />
<glyph unicode="e" glyph-name="e" horiz-adv-x="451" d="M232 343Q202 343 175 333T128 303T96 259T80 205Q79 193 79 182T82 159Q149 186 216 212T351 266Q334 300 302 321T232 343ZM404 243Q326 212 249 182T94 120Q111 82 148 58T232 34Q263 34 290 45T337
76Q344 68 350 61T363 45Q337 21 304 7T232 -7Q191 -7 156 8T94 50T52 111T36 188Q36 228 51 264T93 326T155 367T232 383Q262 383 289 373T338 344T378 300T404 243Z" />
<glyph unicode="f" glyph-name="f" horiz-adv-x="294" d="M22 336V377H87V518Q87 573 103 616T147 688T213 732T294 750V710Q260 709 230 696T177 658T141 598T128 519V377H253V336H128V0H87V336H22Z" />
<glyph unicode="g" glyph-name="g" horiz-adv-x="518" d="M91 188Q91 156 103 128T135 79T184 46T246 34Q279 34 307 46T356 79T389 128T401 188Q401 220 389 248T356 298T307 331T246 343Q213 343 185 331T136 298T103 249T91 188ZM409 375H443V-17V-35Q443 -84
428 -123T387 -191T327 -234T252 -250Q210 -249 168 -234T98 -190Q106 -182 113 -175T128 -159Q150 -183 184 -195T251 -207Q282 -207 309 -195T357 -159T389 -104T401 -32V40Q402 51 403 63T405 86Q390 50 348 22T246 -7Q205 -7 169 8T107 50T65 111T49 188Q49
228 64 263T106 325T169 367T246 383Q275 383 301 375T348 353T383 322T405 287Q405 309 406 331T409 375Z" />
<glyph unicode="h" glyph-name="h" horiz-adv-x="500" d="M103 750H145V323L142 278Q162 326 205 353T306 383Q361 383 393 352T427 271V0H385V260Q383 292 362 316T298 342Q268 342 240 332T191 303T158 260T145 205V0H103V750Z" />
<glyph unicode="i" glyph-name="i" horiz-adv-x="187" d="M63 508Q63 522 73 531T96 541Q109 541 119 532T129 508Q129 494 119 485T96 475Q83 475 73 484T63 508ZM116 0H75V375H116V0Z" />
<glyph unicode="j" glyph-name="j" horiz-adv-x="225" d="M86 508Q86 522 96 531T119 541Q131 541 141 532T151 508Q151 494 141 485T119 475Q106 475 96 484T86 508ZM72 -180L42 -150Q67 -125 82 -89T97 -5V375H138V-4Q138 -63 121 -107T72 -180Z" />
<glyph unicode="k" glyph-name="k" horiz-adv-x="449" d="M327 384Q333 378 339 372T352 358Q315 324 283 293T213 227Q255 170 296 114T379 0H330Q293 50 256 99T183 199Q166 184 151 169T119 139V0H77V750H119V190Q173 241 223 287T327 384Z" />
<glyph unicode="l" glyph-name="l" horiz-adv-x="187" d="M116 0H75V750H116V0Z" />
<glyph unicode="m" glyph-name="m" horiz-adv-x="796" d="M103 375H141V340Q141 323 141 309T142 278Q162 326 205 354T306 383Q357 383 389 356T426 283Q447 328 490 355T588 383Q643 383 675 352T709 271V0H668V260Q666 292 645 316T581 342Q551 342 523 332T474
304T441 262T427 208V0H385V260Q383 292 362 316T298 342Q268 342 240 332T191 303T158 260T145 205V0H103V375Z" />
<glyph unicode="n" glyph-name="n" horiz-adv-x="495" d="M103 375H141V340Q141 323 141 309T142 278Q162 325 206 354T306 383Q361 383 393 352T427 271V0H385V260Q383 292 362 316T298 342Q268 342 240 332T191 303T158 260T145 205V0H103V375Z" />
<glyph unicode="o" glyph-name="o" horiz-adv-x="471" d="M36 188Q36 228 51 264T93 326T155 368T232 384Q273 384 309 369T372 327T414 264T430 188Q430 147 415 112T372 50T309 9T232 -7Q191 -7 156 8T94 50T52 111T36 188ZM78 188Q78 156 90 128T123 79T172
46T232 34Q264 34 292 46T341 79T374 128T387 188Q387 220 375 248T341 297T292 330T232 343Q200 343 172 331T123 297T90 248T78 188Z" />
<glyph unicode="p" glyph-name="p" horiz-adv-x="525" d="M419 187Q419 220 407 248T375 296T326 329T264 341Q231 341 203 329T154 297T121 248T109 187Q109 155 121 127T153 77T202 44T264 32Q297 32 325 44T374 77T407 126T419 187ZM461 187Q461 147 446 112T404
50T341 8T264 -8Q233 -8 207 0T161 21T126 51T105 85Q106 75 107 65T109 44V-250H67V375H103Q103 352 103 330T104 285Q110 303 125 320T161 351T208 373T264 382Q305 382 341 367T403 325T445 263T461 187Z" />
<glyph unicode="q" glyph-name="q" horiz-adv-x="512" d="M93 187Q93 155 105 127T138 77T187 44T248 32Q281 32 309 44T359 77T392 126T404 187Q404 220 392 248T359 296T310 329T248 341Q215 341 187 329T138 297T105 248T93 187ZM51 187Q51 227 66 263T108
325T171 366T248 382Q277 382 303 374T351 351T387 320T408 285Q409 308 409 330T409 375H445V-250H403V44Q404 55 405 65T408 85Q401 68 387 51T352 21T305 0T248 -8Q207 -8 171 7T109 49T67 111T51 187Z" />
<glyph unicode="r" glyph-name="r" horiz-adv-x="331" d="M296 342Q264 341 237 331T189 302T157 259T145 205V0H103V375H141V340Q141 323 141 309T142 278Q164 327 208 354T299 383L296 342Z" />
<glyph unicode="s" glyph-name="s" horiz-adv-x="352" d="M281 338Q275 330 269 323T257 308Q245 322 223 331T179 340Q167 340 155 337T133 326T118 307T112 278Q113 256 127 244T161 223T205 207T249 187T282 156T296 105Q296 88 290 69T269 32T232 4T175 -8Q144
-8 111 3T57 39Q64 47 70 54T84 69Q100 52 126 43T178 33Q187 33 200 36T225 48T245 70T254 102Q254 128 241 142T208 164T163 179T119 197T84 226T70 277Q70 303 80 322T106 355T141 374T178 381Q199 381 229 372T281 338Z" />
<glyph unicode="t" glyph-name="t" horiz-adv-x="287" d="M124 619H166V374H281V333H166V0H124V333H37V374H124V619Z" />
<glyph unicode="u" glyph-name="u" horiz-adv-x="529" d="M427 -4H385V52L388 97Q368 49 324 21T224 -8Q169 -8 137 23T103 104V375H145V115Q147 83 168 59T232 33Q262 33 290 43T339 72T372 115T385 170V375H427V-4Z" />
<glyph unicode="v" glyph-name="v" horiz-adv-x="500" d="M259 -23Q208 77 157 176T54 375H96Q137 296 180 215T259 53Q295 134 338 214T422 375H464Q363 178 259 -23Z" />
<glyph unicode="w" glyph-name="w" horiz-adv-x="772" d="M369 291Q358 312 349 333T328 375H370Q409 295 450 215T527 53Q563 134 604 214T684 375H726Q676 275 627 176T527 -23Q493 46 459 113T391 249Q357 180 323 113T255 -23Q205 77 156 176T56 375H98Q137
295 178 215T255 53Q281 113 310 172T369 291Z" />
<glyph unicode="x" glyph-name="x" horiz-adv-x="421" d="M176 193Q142 239 109 284T42 375H94L211 216Q240 256 268 295T325 374H376Q341 326 306 278T236 181Q270 135 303 90T370 0H318Q289 39 260 79T201 158Q172 119 145 79T88 0H36Q71 48 106 96T176 193Z" />
<glyph unicode="y" glyph-name="y" horiz-adv-x="492" d="M147 -250H103Q134 -188 165 -127T227 -2Q179 92 133 186T38 375H82Q124 291 168 207T249 38Q287 123 330 207T416 375H460Q382 218 304 63T147 -250Z" />
<glyph unicode="z" glyph-name="z" horiz-adv-x="451" d="M133 375H384V334Q309 259 242 188T100 41H403V0H42V41Q117 116 184 188T326 335H126Q95 335 78 347T61 388V410H103V398Q103 386 109 381T133 375Z" />
<glyph unicode="{" glyph-name="braceleft" horiz-adv-x="291" d="M30 275V321Q54 322 69 335T94 369T106 412T109 456V628Q109 674 117 698T139 732T170 744T208 746H255V705H203Q172 705 162 682T151 597V455Q151 414 145 388T130 344T110 316T86 299Q98 292
109 282T130 253T145 209T151 142V1Q151 -61 161 -84T203 -108H255V-148H208Q187 -148 169 -147T137 -133T117 -92T109 -9V140Q109 160 106 183T94 227T70 260T30 275Z" />
<glyph unicode="|" glyph-name="bar" horiz-adv-x="240" d="M96 -232V700H138V-232H96Z" />
<glyph unicode="}" glyph-name="braceright" horiz-adv-x="320" d="M290 321V275Q261 273 246 256T222 214T213 163T211 118V-30Q211 -77 203 -101T181 -135T149 -147T112 -148H65V-108H117Q148 -108 158 -85T169 1V165Q169 197 175 220T192 258T213 283T234 299Q222
306 211 316T190 343T175 387T169 455V597Q169 658 159 681T117 705H65V746H112Q131 746 149 745T180 734T202 699T211 628V478Q211 460 212 434T222 383T245 340T290 321Z" />
<glyph unicode="~" glyph-name="asciitilde" horiz-adv-x="489" d="M267 491Q252 508 240 513T214 519Q206 519 197 517T178 510T162 494T153 468Q147 469 141 469T128 470Q129 489 137 503T157 526T184 540T213 545Q234 545 251 536T285 509Q301 492 313 487T339
481Q346 481 356 483T375 490T390 506T399 532Q406 531 412 531T425 530Q424 511 416 497T396 474T369 460T340 455Q319 455 302 464T267 491Z" />
<glyph unicode="&#xa0;" glyph-name="space" horiz-adv-x="300" />
<glyph unicode="&#xa1;" glyph-name="exclamdown" horiz-adv-x="200" d="M100 518Q88 518 78 509T68 485Q68 471 78 462T100 452Q112 452 122 461T132 485Q132 499 122 508T100 518V518ZM79 -210H121V374H79V-210Z" />
<glyph unicode="&#xa2;" glyph-name="cent" horiz-adv-x="385" d="M78 188Q78 131 112 90T201 39V336Q174 332 152 319T113 286T87 241T78 188ZM330 67Q337 59 343 52T356 36Q308 -4 243 -6V-68H201V-3Q166 2 136 19T83 61T49 119T36 188Q36 224 48 257T83 315T135
358T201 380V438H243V383Q275 381 304 370T357 340Q350 332 344 325T330 309Q312 323 290 331T243 341V34Q292 37 330 67Z" />
<glyph unicode="&#xa3;" glyph-name="sterling" horiz-adv-x="574" d="M143 41H335H360Q421 41 444 51T468 93V145H510V86Q510 69 508 54T494 26T459 7T392 0H27V41H71Q88 41 98 47T114 67T121 107T123 171V296H58V337H123V500Q123 570 172 602T307 634Q374 634
410 608T467 541Q459 536 452 532T436 522Q426 539 416 552T391 574T356 588T307 593Q229 593 197 567T165 494V337H289V296H165V155V131Q165 102 162 79T143 41Z" />
<glyph unicode="&#xa4;" glyph-name="currency" horiz-adv-x="500" d="M146 361Q146 340 154 321T176 288T208 266T247 258Q268 258 287 266T319 288T341 321T349 361Q349 382 341 400T320 433T287 455T247 463Q226 463 208 455T176 433T154 401T146 361ZM104
361Q104 384 111 405T131 444Q123 452 115 460T99 477L129 506L161 474Q179 488 200 496T247 504Q272 504 294 496T333 473L365 506L395 476L363 445Q391 408 391 361Q391 313 361 275L395 240L366 211Q357 219 349 228T331 245Q314 232 292 225T247 218Q224 218
203 225T164 244L129 210L99 239L134 274Q104 312 104 361Z" />
<glyph unicode="&#xa5;" glyph-name="yen" horiz-adv-x="638" d="M483 141V100H343V0H293V100H150V141H293V263H150V304H270Q210 404 152 502T34 700H85Q140 606 195 515T306 330Q309 322 312 316T318 302H319Q322 309 324 315T330 330Q386 423 440 514T550 700H601Q541
600 483 502T365 304H483V263H343V141H483Z" />
<glyph unicode="&#xa6;" glyph-name="brokenbar" horiz-adv-x="215" d="M131 -233H89V117H131V-233ZM131 350H89V700H131V350Z" />
<glyph unicode="&#xa7;" glyph-name="section" horiz-adv-x="500" d="M181 331Q190 304 213 289T265 276Q283 277 297 285T322 306T337 334T341 367Q339 385 331 400T310 425T282 440T250 445Q227 443 211 432T186 405T176 369T181 331ZM236 152Q218 181 205 202T183
240T166 270T152 295Q139 316 136 340T137 387T155 431T188 465Q210 479 235 480T284 474Q270 497 257 520T230 567Q214 595 207 615T200 651T207 676T222 696Q236 710 257 721T295 743Q300 734 305 725T316 708L271 681Q245 666 246 643T276 572Q298 534 319 497T364
421Q377 400 380 376T378 330T360 288T326 254Q304 240 279 238T230 244Q244 221 257 197T285 150Q301 122 308 102T315 66T308 41T293 21Q280 6 259 -5T221 -26Q216 -17 211 -8T200 9L245 36Q271 50 269 75T236 152Z" />
<glyph unicode="&#xa8;" glyph-name="dieresis" horiz-adv-x="370" d="M234 508Q234 522 244 531T267 541Q280 541 289 532T299 508Q299 494 290 485T267 475Q254 475 244 484T234 508ZM69 508Q69 522 79 531T102 541Q114 541 124 532T134 508Q134 494 124 485T102
475Q89 475 79 484T69 508Z" />
<glyph unicode="&#xa9;" glyph-name="copyright" horiz-adv-x="793" d="M399 138Q448 138 491 155T565 204T615 278T634 371Q634 422 616 465T566 539T491 589T399 607Q351 607 309 589T235 540T185 465T166 371Q166 321 184 279T234 205T308 156T399 138ZM400
115Q346 115 299 134T217 188T162 270T142 372Q142 428 162 475T217 556T299 610T400 630Q454 630 501 611T583 557T638 475T658 372Q658 317 638 270T583 189T501 135T400 115ZM477 251L488 236Q470 225 449 219T405 213Q372 213 343 226T291 261T257 312T244
375Q244 409 256 438T291 490T342 524T405 537Q450 537 488 515Q485 511 483 507T478 499Q444 519 405 519Q376 519 350 508T305 477T274 431T263 374Q263 345 274 319T304 274T349 243T404 231Q424 231 442 236T477 251Z" />
<glyph unicode="&#xaa;" glyph-name="ordfeminine" horiz-adv-x="585" d="M124 442Q124 419 132 399T156 363T191 340T235 331Q259 331 279 339T315 363T338 398T347 442Q347 465 339 485T315 521T280 544T235 553Q212 553 192 545T156 521T133 486T124 442ZM93
442Q93 470 104 496T135 541T180 571T235 582Q256 582 275 576T309 561T334 538T350 513Q350 529 351 545T353 576H378V306H350V338Q350 346 350 353T351 369Q347 356 337 344T311 322T277 307T235 301Q206 301 180 312T135 342T105 386T93 442Z" />
<glyph unicode="&#xab;" glyph-name="guillemotleft" horiz-adv-x="601" d="M459 77L288 239Q331 280 373 319T459 400V352Q431 324 404 296T348 239L459 125V77ZM288 77L117 239Q160 280 202 319T288 400V352Q260 323 233 296T177 239L288 125V77Z" />
<glyph unicode="&#xac;" glyph-name="logicalnot" horiz-adv-x="559" d="M418 148V211H100V244H460V148H418Z" />
<glyph unicode="&#xae;" glyph-name="registered" horiz-adv-x="801" d="M399 138Q448 138 491 155T565 204T615 278T634 371Q634 422 616 465T566 539T491 589T399 607Q351 607 309 589T235 540T185 465T166 371Q166 321 184 279T234 205T308 156T399 138ZM400
115Q346 115 299 134T217 188T162 270T142 372Q142 428 162 475T217 556T299 610T400 630Q454 630 501 611T583 557T638 475T658 372Q658 317 638 270T583 189T501 135T400 115ZM348 385H398Q423 385 439 391T464 408T478 431T482 454Q482 481 458 501T398 522H348V385ZM329
210V541H400Q415 541 432 536T465 521T490 494T501 454Q501 421 483 399T430 368Q449 328 467 289T505 210H484Q446 290 410 367Q405 366 402 366T393 366H348V210H329Z" />
<glyph unicode="&#xaf;" glyph-name="macron" horiz-adv-x="399" d="M85 486V516H315V486H85Z" />
<glyph unicode="0;" glyph-name="degree" horiz-adv-x="282" d="M138 503Q161 503 178 519T195 560Q195 583 178 599T138 616Q114 616 98 600T81 560Q81 536 97 520T138 503ZM51 559Q51 596 76 621T138 646Q174 646 199 621T224 559Q224 523 199 499T138 474Q101
474 76 498T51 559Z" />
<glyph unicode="1;" glyph-name="plusminus" horiz-adv-x="524" d="M245 211V371H86V412H245V571H287V412H446V371H287V211H245ZM446 122H86V162H446V122Z" />
<glyph unicode="2;" glyph-name="twosuperior" horiz-adv-x="398" d="M154 395H308V375H103Q134 406 163 435T216 492T252 546T266 595Q266 619 259 635T242 661T219 675T195 680Q172 680 158 672T136 653T125 628T122 604Q122 586 126 573T141 549Q138 546
135 543T128 537Q116 548 109 566T101 604Q101 623 107 640T125 671T154 692T195 700Q215 700 232 693T262 672T280 640T287 601Q287 575 275 549T244 496T201 445T154 395Z" />
<glyph unicode="3;" glyph-name="threesuperior" horiz-adv-x="419" d="M132 551Q155 583 177 615T222 680H100V700H259L172 579Q192 577 209 569T240 548T260 518T267 479Q267 458 259 439T237 406T204 384T164 376Q141 376 122 385T88 410L103 425Q114 412
129 404T163 396Q180 396 195 403T222 421T240 447T247 479Q247 496 240 511T222 537T196 554T163 561Q155 561 147 559T132 551Z" />
<glyph unicode="4;" glyph-name="acute" horiz-adv-x="240" d="M100 479Q123 512 145 545T190 612H233Q208 579 183 546T133 479H100Z" />
<glyph unicode="5;" glyph-name="mu" horiz-adv-x="545" d="M427 -4H385V52L388 97Q368 49 325 21T224 -8Q198 -8 178 1T145 28V-201H103V375H145V115Q147 83 168 59T232 33Q262 33 290 43T339 72T372 115T385 170V375H427V-4Z" />
<glyph unicode="6;" glyph-name="paragraph" horiz-adv-x="512" d="M243 0H201V423Q167 423 137 435T85 470T51 522T38 586Q38 620 50 650T85 702T137 737T201 750H406V0H364V709H243V0Z" />
<glyph unicode="7;" glyph-name="periodcentered" horiz-adv-x="165" d="M53 281Q53 295 63 304T86 314Q98 314 108 305T118 281Q118 267 108 258T86 248Q73 248 63 257T53 281Z" />
<glyph unicode="8;" glyph-name="cedilla" horiz-adv-x="452" d="M189 0H218V-6Q218 -20 222 -28T232 -43T246 -53T260 -61Q282 -76 291 -95T300 -133Q300 -181 275 -207T208 -234Q179 -234 154 -218T117 -169Q124 -166 131 -163T145 -157Q150 -176 166 -188T205
-201Q233 -201 250 -182T267 -135Q267 -110 255 -97T228 -73T201 -53T189 -23V0Z" />
<glyph unicode="9;" glyph-name="onesuperior" horiz-adv-x="259" d="M65 681V700H127V401H108V681H65Z" />
<glyph unicode="a;" glyph-name="ordmasculine" horiz-adv-x="469" d="M91 442Q91 470 102 496T132 541T177 572T232 583Q262 583 288 572T333 542T364 496T375 442Q375 412 364 387T334 342T288 312T232 301Q203 301 178 312T133 342T102 386T91 442ZM121
442Q121 419 130 399T154 363T189 340T232 331Q255 331 275 339T311 363T335 398T344 442Q344 465 335 485T311 520T276 544T232 553Q209 553 189 544T154 520T130 485T121 442Z" />
<glyph unicode="b;" glyph-name="guillemotright" horiz-adv-x="601" d="M117 77L288 239Q245 280 203 319T117 400V352Q145 324 172 296T228 239L117 125V77ZM288 77L459 239Q416 280 374 319T288 400V352Q316 323 343 296T399 239L288 125V77Z" />
<glyph unicode="c;" glyph-name="onequarter" horiz-adv-x="968" d="M279 -19Q349 171 418 358T557 735H599Q529 546 460 359T321 -19H279ZM742 398Q698 340 654 283T565 167H742V398ZM501 136Q570 225 637 313T773 490V167H845V136H773V0H742V136H501ZM131
666V695H228V234H198V666H131Z" />
<glyph unicode="d;" glyph-name="onehalf" horiz-adv-x="1069" d="M121 666V695H218V234H189V666H121ZM646 29H867V0H573Q618 44 660 86T734 168T787 245T807 316Q807 350 797 373T771 410T738 431T704 437Q673 437 653 426T621 398T605 363T600 328Q600 303
607 284T627 250Q623 246 619 242T610 232Q591 248 581 274T570 328Q570 356 579 381T605 425T647 455T704 466Q734 466 758 455T800 425T827 380T837 324Q837 286 820 248T775 174T713 101T646 29ZM279 -19Q349 171 418 358T557 735H599Q529 546 460 359T321 -19H279Z"
/>
<glyph unicode="e;" glyph-name="threequarters" horiz-adv-x="1276" d="M216 474Q251 525 286 575T357 677H165V708H415L278 518Q309 516 336 503T384 470T416 422T428 361Q428 328 415 299T380 247T329 213T266 200Q230 200 200 214T147 252L171 276Q188
256 212 244T264 231Q291 231 315 241T357 270T385 311T395 361Q395 388 385 411T357 452T315 480T264 490Q251 490 239 486T216 474ZM454 -19Q524 171 593 358T732 736H774Q704 546 635 359T496 -19H454ZM941 398Q896 340 852 283T763 167H941V398ZM700 136Q768
225 835 313T972 490V167H1044V136H972V0H941V136H700Z" />
<glyph unicode="f;" glyph-name="questiondown" horiz-adv-x="427" d="M385 -39Q394 -43 403 -46T422 -52Q413 -78 397 -103T358 -148T303 -180T231 -193Q190 -193 154 -178T92 -136T50 -74T35 2Q35 56 61 97T133 171Q150 184 166 194T196 216T217 248T225
297V375H267V278Q267 247 256 228T228 193T188 165T141 131Q108 104 93 72T77 2Q77 -31 88 -59T121 -108T170 -140T231 -152Q289 -152 328 -122T385 -39ZM246 524Q258 524 268 515T279 491Q279 477 269 468T246 458Q234 458 224 467T214 491Q214 505 224 514T246
524Z" />
<glyph unicode="0;" glyph-name="Agrave" horiz-adv-x="740" d="M379 611Q377 618 375 625T370 639Q344 563 312 489T247 340H494Q465 409 437 476T379 611ZM680 0H638Q606 75 575 150T511 300H230Q198 225 167 150T103 0H60Q138 184 215 366T370 732Q448
548 525 366T680 0ZM298 883Q321 850 343 817T388 750H355Q330 783 305 816T255 883H298Z" />
<glyph unicode="1;" glyph-name="Aacute" horiz-adv-x="740" d="M379 611Q377 618 375 625T370 639Q344 563 312 489T247 340H494Q465 409 437 476T379 611ZM680 0H638Q606 75 575 150T511 300H230Q198 225 167 150T103 0H60Q138 184 215 366T370 732Q448
548 525 366T680 0ZM350 750Q373 783 395 816T440 883H483Q458 850 433 817T383 750H350Z" />
<glyph unicode="2;" glyph-name="Acircumflex" horiz-adv-x="740" d="M379 611Q377 618 375 625T370 639Q344 563 312 489T247 340H494Q465 409 437 476T379 611ZM680 0H638Q606 75 575 150T511 300H230Q198 225 167 150T103 0H60Q138 184 215 366T370 732Q448
548 525 366T680 0ZM371 931Q401 886 431 841T491 750H458Q436 780 415 810T371 871Q349 841 328 811T284 750H251Q281 795 311 840T371 931Z" />
<glyph unicode="3;" glyph-name="Atilde" horiz-adv-x="740" d="M379 611Q377 618 375 625T370 639Q344 563 312 489T247 340H494Q465 409 437 476T379 611ZM680 0H638Q606 75 575 150T511 300H230Q198 225 167 150T103 0H60Q138 184 215 366T370 732Q448
548 525 366T680 0ZM358 785Q343 802 331 807T305 813Q297 813 288 811T269 804T253 788T244 762Q238 763 232 763T219 764Q220 783 228 797T248 820T275 834T304 839Q325 839 342 830T376 803Q392 786 404 781T430 775Q437 775 447 777T466 784T481 800T490 826Q497
825 503 825T516 824Q515 805 507 791T487 768T460 754T431 749Q410 749 393 758T358 785Z" />
<glyph unicode="4;" glyph-name="Adieresis" horiz-adv-x="740" d="M379 611Q377 618 375 625T370 639Q344 563 312 489T247 340H494Q465 409 437 476T379 611ZM680 0H638Q606 75 575 150T511 300H230Q198 225 167 150T103 0H60Q138 184 215 366T370 732Q448
548 525 366T680 0ZM421 798Q421 812 431 821T454 831Q467 831 476 822T486 798Q486 784 477 775T454 765Q441 765 431 774T421 798ZM256 798Q256 812 266 821T289 831Q301 831 311 822T321 798Q321 784 311 775T289 765Q276 765 266 774T256 798Z" />
<glyph unicode="5;" glyph-name="Aring" horiz-adv-x="740" d="M329 835Q329 818 341 806T371 793Q388 793 401 805T414 835Q414 852 401 865T371 878Q354 878 342 865T329 835ZM298 836Q298 866 319 887T371 908Q401 908 422 887T444 836Q444 805 423 784T371
763Q341 763 320 784T298 836ZM379 611Q377 618 375 625T370 639Q344 563 312 489T247 340H494Q465 409 437 476T379 611ZM680 0H638Q606 75 575 150T511 300H230Q198 225 167 150T103 0H60Q138 184 215 366T370 732Q448 548 525 366T680 0Z" />
<glyph unicode="6;" glyph-name="AE" horiz-adv-x="792" d="M362 335V619Q336 547 305 477T244 335H362ZM60 0Q135 176 208 350T356 700H690V660H403V373H651V333H403V40H704V0H362V295H227Q196 221 165 148T102 0H60Z" />
<glyph unicode="7;" glyph-name="Ccedilla" horiz-adv-x="670" d="M578 76L601 42Q562 19 518 6T425 -8Q425 -34 439 -43T466 -61Q488 -76 497 -95T506 -133Q506 -181 481 -207T414 -234Q385 -234 360 -218T324 -169L351 -157Q357 -176 372 -188T411 -201Q440
-201 456 -182T473 -135Q473 -110 461 -97T435 -73T408 -53T396 -23V-7Q326 -3 265 26T159 104T88 215T62 349Q62 423 90 488T166 602T280 679T419 708Q470 708 515 695T602 658Q596 650 591 641T579 624Q544 645 504 656T419 668Q354 668 297 643T196 574T129
472T104 348Q104 283 128 226T196 125T295 57T417 32Q462 32 502 43T578 76Z" />
<glyph unicode="8;" glyph-name="Egrave" horiz-adv-x="601" d="M85 0V700H500V660H126V373H461V333H126V40H514V0H85ZM220 883Q243 850 265 817T310 750H277Q252 783 227 816T177 883H220Z" />
<glyph unicode="9;" glyph-name="Eacute" horiz-adv-x="601" d="M85 0V700H500V660H126V373H461V333H126V40H514V0H85ZM271 750Q294 783 316 816T361 883H404Q379 850 354 817T304 750H271Z" />
<glyph unicode="a;" glyph-name="Ecircumflex" horiz-adv-x="601" d="M85 0V700H500V660H126V373H461V333H126V40H514V0H85ZM300 931Q330 886 360 841T420 750H387Q365 780 344 810T300 871Q278 841 257 811T213 750H180Q210 795 240 840T300 931Z" />
<glyph unicode="b;" glyph-name="Edieresis" horiz-adv-x="601" d="M85 0V700H500V660H126V373H461V333H126V40H514V0H85ZM344 798Q344 812 354 821T377 831Q390 831 399 822T409 798Q409 784 400 775T377 765Q364 765 354 774T344 798ZM179 798Q179 812 189
821T212 831Q224 831 234 822T244 798Q244 784 234 775T212 765Q199 765 189 774T179 798Z" />
<glyph unicode="c;" glyph-name="Igrave" horiz-adv-x="236" d="M104 700H145V0H104V700ZM50 883Q73 850 95 817T140 750H107Q82 783 57 816T7 883H50Z" />
<glyph unicode="d;" glyph-name="Iacute" horiz-adv-x="236" d="M104 700H145V0H104V700ZM106 750Q129 783 151 816T196 883H239Q214 850 189 817T139 750H106Z" />
<glyph unicode="e;" glyph-name="Icircumflex" horiz-adv-x="256" d="M104 700H145V0H104V700ZM125 931Q155 886 185 841T245 750H212Q190 780 169 810T125 871Q103 841 82 811T38 750H5Q35 795 65 840T125 931Z" />
<glyph unicode="f;" glyph-name="Idieresis" horiz-adv-x="236" d="M104 700H145V0H104V700ZM174 798Q174 812 184 821T207 831Q220 831 229 822T239 798Q239 784 230 775T207 765Q194 765 184 774T174 798ZM9 798Q9 812 19 821T42 831Q54 831 64 822T74 798Q74
784 64 775T42 765Q29 765 19 774T9 798Z" />
<glyph unicode="&#xd0;" glyph-name="Eth" horiz-adv-x="646" d="M117 331V40H207Q279 40 341 62T448 124T519 222T545 350Q545 422 520 479T450 576T343 638T207 660H117V372H324V331H117ZM76 372V700H219Q294 700 360 676T477 606T556 495T586 350Q586 291 565
229T495 116T370 33T183 0H76V331H22V372H76Z" />
<glyph unicode="&#xd1;" glyph-name="Ntilde" horiz-adv-x="813" d="M711 700V-32Q571 129 434 287T158 607Q153 614 149 620T139 633Q140 625 140 617T142 601V0H100V732Q240 569 377 410T653 88Q658 81 662 75T672 62Q671 70 671 78T669 94V700H711ZM402 784Q387
801 375 806T349 812Q341 812 332 810T313 803T297 787T288 761Q282 762 276 762T263 763Q264 782 272 796T292 819T319 833T348 838Q369 838 386 829T420 802Q436 785 448 780T474 774Q481 774 491 776T510 783T525 799T534 825Q541 824 547 824T560 823Q559 804
551 790T531 767T504 753T475 748Q454 748 437 757T402 784Z" />
<glyph unicode="&#xd2;" glyph-name="Ograve" horiz-adv-x="839" d="M62 349Q62 423 90 488T166 602T280 679T419 708Q493 708 558 680T672 603T749 489T778 349Q778 275 750 210T673 97T559 20T419 -8Q345 -8 280 20T167 96T90 210T62 349ZM104 348Q104 282 128
225T196 125T296 57T418 32Q483 32 541 57T642 125T711 225T736 349Q736 415 711 473T643 574T542 643T419 668Q354 668 297 643T196 574T129 472T104 348ZM344 883Q367 850 389 817T434 750H401Q376 783 351 816T301 883H344Z" />
<glyph unicode="&#xd3;" glyph-name="Oacute" horiz-adv-x="840" d="M62 349Q62 423 90 488T166 602T280 679T419 708Q493 708 558 680T672 603T749 489T778 349Q778 275 750 210T673 97T559 20T419 -8Q345 -8 280 20T167 96T90 210T62 349ZM104 348Q104 282 128
225T196 125T296 57T418 32Q483 32 541 57T642 125T711 225T736 349Q736 415 711 473T643 574T542 643T419 668Q354 668 297 643T196 574T129 472T104 348ZM400 750Q423 783 445 816T490 883H533Q508 850 483 817T433 750H400Z" />
<glyph unicode="&#xd4;" glyph-name="Ocircumflex" horiz-adv-x="839" d="M62 349Q62 423 90 488T166 602T280 679T419 708Q493 708 558 680T672 603T749 489T778 349Q778 275 750 210T673 97T559 20T419 -8Q345 -8 280 20T167 96T90 210T62 349ZM104 348Q104
282 128 225T196 125T296 57T418 32Q483 32 541 57T642 125T711 225T736 349Q736 415 711 473T643 574T542 643T419 668Q354 668 297 643T196 574T129 472T104 348ZM416 931Q446 886 476 841T536 750H503Q481 780 460 810T416 871Q394 841 373 811T329 750H296Q326
795 356 840T416 931Z" />
<glyph unicode="&#xd5;" glyph-name="Otilde" horiz-adv-x="839" d="M62 349Q62 423 90 488T166 602T280 679T419 708Q493 708 558 680T672 603T749 489T778 349Q778 275 750 210T673 97T559 20T419 -8Q345 -8 280 20T167 96T90 210T62 349ZM104 348Q104 282 128
225T196 125T296 57T418 32Q483 32 541 57T642 125T711 225T736 349Q736 415 711 473T643 574T542 643T419 668Q354 668 297 643T196 574T129 472T104 348ZM408 818Q393 835 381 840T355 846Q347 846 338 844T319 837T303 821T294 795Q288 796 282 796T269 797Q270
816 278 830T298 853T325 867T354 872Q375 872 392 863T426 836Q442 819 454 814T480 808Q487 808 497 810T516 817T531 833T540 859Q547 858 553 858T566 857Q565 838 557 824T537 801T510 787T481 782Q460 782 443 791T408 818Z" />
<glyph unicode="&#xd6;" glyph-name="Odieresis" horiz-adv-x="839" d="M62 349Q62 423 90 488T166 602T280 679T419 708Q493 708 558 680T672 603T749 489T778 349Q778 275 750 210T673 97T559 20T419 -8Q345 -8 280 20T167 96T90 210T62 349ZM104 348Q104 282
128 225T196 125T296 57T418 32Q483 32 541 57T642 125T711 225T736 349Q736 415 711 473T643 574T542 643T419 668Q354 668 297 643T196 574T129 472T104 348ZM469 798Q469 812 479 821T502 831Q515 831 524 822T534 798Q534 784 525 775T502 765Q489 765 479
774T469 798ZM304 798Q304 812 314 821T337 831Q349 831 359 822T369 798Q369 784 359 775T337 765Q324 765 314 774T304 798Z" />
<glyph unicode="&#xd7;" glyph-name="multiply" horiz-adv-x="500" d="M377 0Q348 29 320 56T263 113Q235 85 208 57T151 0Q144 8 137 15T122 29Q151 58 178 85T234 142L122 254L152 284L264 172Q293 201 320 228T377 284Q384 277 391 270T406 255Q377 227 350
199T293 143Q322 114 349 86T406 30L377 0Z" />
<glyph unicode="&#xd8;" glyph-name="Oslash" horiz-adv-x="840" d="M104 348Q104 282 128 224T197 123Q300 245 401 365T605 606Q565 635 518 651T419 668Q354 668 297 643T196 574T129 472T104 348ZM417 32Q483 32 541 57T642 125T711 225T736 349Q736 418 709
477T633 581Q530 460 430 340T226 98Q266 66 314 49T417 32ZM62 349Q62 423 90 488T166 602T280 679T419 708Q479 708 533 690T632 637L695 712Q702 706 709 700T723 687Q707 668 692 650T661 613Q715 564 746 496T778 349Q778 275 750 210T673 97T559 20T419 -8Q356
-8 301 12T200 67Q183 47 167 28T133 -12Q126 -5 119 1T105 14L171 92Q120 141 91 207T62 349Z" />
<glyph unicode="&#xd9;" glyph-name="Ugrave" horiz-adv-x="652" d="M328 -8Q277 -8 234 7T160 51T111 125T93 226V700H134V229Q134 181 148 145T188 83T250 45T328 32Q370 32 405 45T467 83T508 144T523 229V700H565V226Q565 169 547 125T497 52T422 7T328 -8ZM257
883Q280 850 302 817T347 750H314Q289 783 264 816T214 883H257Z" />
<glyph unicode="&#xda;" glyph-name="Uacute" horiz-adv-x="652" d="M328 -8Q277 -8 234 7T160 51T111 125T93 226V700H134V229Q134 181 148 145T188 83T250 45T328 32Q370 32 405 45T467 83T508 144T523 229V700H565V226Q565 169 547 125T497 52T422 7T328 -8ZM300
750Q323 783 345 816T390 883H433Q408 850 383 817T333 750H300Z" />
<glyph unicode="&#xdb;" glyph-name="Ucircumflex" horiz-adv-x="652" d="M328 -8Q277 -8 234 7T160 51T111 125T93 226V700H134V229Q134 181 148 145T188 83T250 45T328 32Q370 32 405 45T467 83T508 144T523 229V700H565V226Q565 169 547 125T497 52T422 7T328
-8ZM326 961Q356 916 386 871T446 780H413Q391 810 370 840T326 901Q304 871 283 841T239 780H206Q236 825 266 870T326 961Z" />
<glyph unicode="&#xdc;" glyph-name="Udieresis" horiz-adv-x="652" d="M328 -8Q277 -8 234 7T160 51T111 125T93 226V700H134V229Q134 181 148 145T188 83T250 45T328 32Q370 32 405 45T467 83T508 144T523 229V700H565V226Q565 169 547 125T497 52T422 7T328
-8ZM380 798Q380 812 390 821T413 831Q426 831 435 822T445 798Q445 784 436 775T413 765Q400 765 390 774T380 798ZM215 798Q215 812 225 821T248 831Q260 831 270 822T280 798Q280 784 270 775T248 765Q235 765 225 774T215 798Z" />
<glyph unicode="&#xdd;" glyph-name="Yacute" horiz-adv-x="638" d="M343 265V0H293V265Q228 374 164 482T34 700H85Q140 606 196 515T306 330Q309 322 312 316T318 302H319Q322 309 324 315T330 330Q386 423 440 514T550 700H601L343 265ZM294 750Q317 783 339
816T384 883H427Q402 850 377 817T327 750H294Z" />
<glyph unicode="&#xde;" glyph-name="Thorn" horiz-adv-x="501" d="M142 205H245Q297 205 331 219T386 255T415 302T423 352Q423 380 410 406T373 452T317 483T246 495H142V205ZM142 0H100V700H142V535H250Q281 535 318 525T388 493T443 436T465 352Q465 266 410
215T252 164H142V0Z" />
<glyph unicode="&#xdf;" glyph-name="germandbls" horiz-adv-x="573" d="M183 17Q188 26 192 35T200 53Q236 32 280 32Q315 32 346 45T400 82T436 135T450 200Q450 234 437 264T400 316T347 352T281 365V386V407Q326 407 357 434T388 505Q388 527 380 547T358
583T325 608T282 617Q250 616 222 603T173 565T140 505T128 425V0H87V356H22V396H87V425Q87 480 102 523T145 595T207 641T282 658Q313 657 340 645T387 613T418 565T430 507Q430 469 410 438T357 389Q386 379 411 361T454 318T482 263T492 200Q492 157 475 119T430
53T363 9T281 -8Q228 -8 183 17Z" />
<glyph unicode="&#xe0;" glyph-name="agrave" horiz-adv-x="551" d="M91 188Q91 156 103 128T135 79T184 46T246 34Q279 34 307 46T356 79T389 128T401 188Q401 220 389 248T356 298T307 331T246 343Q213 343 185 331T136 298T103 249T91 188ZM49 188Q49 228 64
263T106 325T169 367T246 383Q275 383 301 375T348 353T383 322T405 287Q405 309 406 331T409 375H443V0H405V45Q405 56 405 66T406 87Q400 70 386 53T351 23T304 1T246 -7Q205 -7 169 8T107 50T65 111T49 188ZM177 612Q200 579 222 546T267 479H234Q209 512 184
545T134 612H177Z" />
<glyph unicode="&#xe1;" glyph-name="aacute" horiz-adv-x="551" d="M91 188Q91 156 103 128T135 79T184 46T246 34Q279 34 307 46T356 79T389 128T401 188Q401 220 389 248T356 298T307 331T246 343Q213 343 185 331T136 298T103 249T91 188ZM49 188Q49 228 64
263T106 325T169 367T246 383Q275 383 301 375T348 353T383 322T405 287Q405 309 406 331T409 375H443V0H405V45Q405 56 405 66T406 87Q400 70 386 53T351 23T304 1T246 -7Q205 -7 169 8T107 50T65 111T49 188ZM232 479Q255 512 277 545T322 612H365Q340 579 315
546T265 479H232Z" />
<glyph unicode="&#xe2;" glyph-name="acircumflex" horiz-adv-x="551" d="M91 188Q91 156 103 128T135 79T184 46T246 34Q279 34 307 46T356 79T389 128T401 188Q401 220 389 248T356 298T307 331T246 343Q213 343 185 331T136 298T103 249T91 188ZM49 188Q49
228 64 263T106 325T169 367T246 383Q275 383 301 375T348 353T383 322T405 287Q405 309 406 331T409 375H443V0H405V45Q405 56 405 66T406 87Q400 70 386 53T351 23T304 1T246 -7Q205 -7 169 8T107 50T65 111T49 188ZM261 660Q291 615 321 570T381 479H348Q326
509 305 539T261 600Q239 570 218 540T174 479H141Q171 524 201 569T261 660Z" />
<glyph unicode="&#xe3;" glyph-name="atilde" horiz-adv-x="551" d="M91 188Q91 156 103 128T135 79T184 46T246 34Q279 34 307 46T356 79T389 128T401 188Q401 220 389 248T356 298T307 331T246 343Q213 343 185 331T136 298T103 249T91 188ZM49 188Q49 228 64
263T106 325T169 367T246 383Q275 383 301 375T348 353T383 322T405 287Q405 309 406 331T409 375H443V0H405V45Q405 56 405 66T406 87Q400 70 386 53T351 23T304 1T246 -7Q205 -7 169 8T107 50T65 111T49 188ZM518 491Q503 508 491 513T465 519Q457 519 448 517T429
510T413 494T404 468Q398 469 392 469T379 470Q380 489 388 503T408 526T435 540T464 545Q485 545 502 536T536 509Q552 492 564 487T590 481Q597 481 607 483T626 490T641 506T650 532Q657 531 663 531T676 530Q675 511 667 497T647 474T620 460T591 455Q570 455
553 464T518 491Z" />
<glyph unicode="&#xe4;" glyph-name="adieresis" horiz-adv-x="551" d="M91 188Q91 156 103 128T135 79T184 46T246 34Q279 34 307 46T356 79T389 128T401 188Q401 220 389 248T356 298T307 331T246 343Q213 343 185 331T136 298T103 249T91 188ZM49 188Q49 228
64 263T106 325T169 367T246 383Q275 383 301 375T348 353T383 322T405 287Q405 309 406 331T409 375H443V0H405V45Q405 56 405 66T406 87Q400 70 386 53T351 23T304 1T246 -7Q205 -7 169 8T107 50T65 111T49 188ZM313 508Q313 522 323 531T346 541Q359 541 368
532T378 508Q378 494 369 485T346 475Q333 475 323 484T313 508ZM148 508Q148 522 158 531T181 541Q193 541 203 532T213 508Q213 494 203 485T181 475Q168 475 158 484T148 508Z" />
<glyph unicode="&#xe5;" glyph-name="aring" horiz-adv-x="551" d="M208 540Q208 523 220 510T250 497Q267 497 280 510T293 540Q293 557 280 569T250 582Q233 582 221 570T208 540ZM177 540Q177 570 198 591T250 613Q280 613 301 592T323 540Q323 510 302 489T250
467Q220 467 199 488T177 540ZM91 188Q91 156 103 128T135 79T184 46T246 34Q279 34 307 46T356 79T389 128T401 188Q401 220 389 248T356 298T307 331T246 343Q213 343 185 331T136 298T103 249T91 188ZM49 188Q49 228 64 263T106 325T169 367T246 383Q275 383
301 375T348 353T383 322T405 287Q405 309 406 331T409 375H443V0H405V45Q405 56 405 66T406 87Q400 70 386 53T351 23T304 1T246 -7Q205 -7 169 8T107 50T65 111T49 188Z" />
<glyph unicode="&#xe6;" glyph-name="ae" horiz-adv-x="629" d="M360 243V205Q399 220 438 235T517 266Q499 301 468 322T398 343Q381 343 366 340T337 331Q350 317 355 296T360 243ZM318 162H239Q224 162 199 162T149 157T107 139T89 103Q89 81 100 68T128 47T166
36T206 33Q225 33 245 36T281 47T308 69T318 108V162ZM97 311Q91 318 85 325T72 339Q82 348 97 356T131 371T168 380T205 384Q278 384 313 365Q353 384 398 384Q428 384 455 374T504 344T544 300T570 243Q517 223 465 202T360 161V145V130Q360 101 354 82T333 47Q362
34 398 34Q429 34 456 45T503 76Q509 68 515 61T529 46Q503 21 470 7T398 -7Q348 -7 308 14Q273 -8 205 -8Q169 -8 140 -3T91 15T59 49T47 104Q47 132 59 151T92 183T139 200T195 205H318V245Q318 270 314 288T298 319T264 337T204 343Q190 343 175 340T145 333T118
323T97 311Z" />
<glyph unicode="&#xe7;" glyph-name="ccedilla" horiz-adv-x="388" d="M330 67Q337 59 343 52T356 36Q307 -4 238 -7Q238 -21 242 -29T252 -43T266 -53T279 -61Q302 -76 311 -95T320 -133Q320 -178 298 -202T242 -231Q224 -234 207 -230Q184 -226 165 -211T137
-169Q144 -166 151 -163T165 -157Q170 -176 186 -188T225 -201Q253 -201 270 -182T287 -135Q287 -110 275 -97T248 -73T221 -53T209 -23V-4Q172 0 141 16T86 57T49 116T36 188Q36 228 51 264T93 326T155 367T232 383Q268 383 300 372T357 340Q350 332 344 325T330
309Q310 325 286 334T232 343Q199 343 171 331T123 298T90 249T78 188Q78 156 90 128T122 79T171 46T232 34Q289 34 330 67Z" />
<glyph unicode="&#xe8;" glyph-name="egrave" horiz-adv-x="451" d="M232 343Q202 343 175 333T128 303T96 259T80 205Q79 193 79 182T82 159Q149 186 216 212T351 266Q334 300 302 321T232 343ZM404 243Q326 212 249 182T94 120Q111 82 148 58T232 34Q263 34
290 45T337 76Q344 68 350 61T363 45Q337 21 304 7T232 -7Q191 -7 156 8T94 50T52 111T36 188Q36 228 51 264T93 326T155 367T232 383Q262 383 289 373T338 344T378 300T404 243ZM142 612Q165 579 187 546T232 479H199Q174 512 149 545T99 612H142Z" />
<glyph unicode="&#xe9;" glyph-name="eacute" horiz-adv-x="451" d="M232 343Q202 343 175 333T128 303T96 259T80 205Q79 193 79 182T82 159Q149 186 216 212T351 266Q334 300 302 321T232 343ZM404 243Q326 212 249 182T94 120Q111 82 148 58T232 34Q263 34
290 45T337 76Q344 68 350 61T363 45Q337 21 304 7T232 -7Q191 -7 156 8T94 50T52 111T36 188Q36 228 51 264T93 326T155 367T232 383Q262 383 289 373T338 344T378 300T404 243ZM227 479Q250 512 272 545T317 612H360Q335 579 310 546T260 479H227Z" />
<glyph unicode="&#xea;" glyph-name="ecircumflex" horiz-adv-x="451" d="M232 343Q202 343 175 333T128 303T96 259T80 205Q79 193 79 182T82 159Q149 186 216 212T351 266Q334 300 302 321T232 343ZM404 243Q326 212 249 182T94 120Q111 82 148 58T232 34Q263
34 290 45T337 76Q344 68 350 61T363 45Q337 21 304 7T232 -7Q191 -7 156 8T94 50T52 111T36 188Q36 228 51 264T93 326T155 367T232 383Q262 383 289 373T338 344T378 300T404 243ZM232 660Q262 615 292 570T352 479H319Q297 509 276 539T232 600Q210 570 189
540T145 479H112Q142 524 172 569T232 660Z" />
<glyph unicode="&#xeb;" glyph-name="edieresis" horiz-adv-x="451" d="M232 343Q202 343 175 333T128 303T96 259T80 205Q79 193 79 182T82 159Q149 186 216 212T351 266Q334 300 302 321T232 343ZM404 243Q326 212 249 182T94 120Q111 82 148 58T232 34Q263
34 290 45T337 76Q344 68 350 61T363 45Q337 21 304 7T232 -7Q191 -7 156 8T94 50T52 111T36 188Q36 228 51 264T93 326T155 367T232 383Q262 383 289 373T338 344T378 300T404 243ZM279 508Q279 522 289 531T312 541Q325 541 334 532T344 508Q344 494 335 485T312
475Q299 475 289 484T279 508ZM114 508Q114 522 124 531T147 541Q159 541 169 532T179 508Q179 494 169 485T147 475Q134 475 124 484T114 508Z" />
<glyph unicode="&#xec;" glyph-name="igrave" horiz-adv-x="174" d="M116 0H75V375H116V0ZM19 612Q42 579 64 546T109 479H76Q51 512 26 545T-24 612H19Z" />
<glyph unicode="&#xed;" glyph-name="iacute" horiz-adv-x="198" d="M112 0H71V375H112V0ZM79 479Q102 512 124 545T169 612H212Q187 579 162 546T112 479H79Z" />
<glyph unicode="&#xee;" glyph-name="icircumflex" horiz-adv-x="239" d="M137 0H95V375H137V0ZM116 660Q146 615 176 570T236 479H203Q181 509 160 539T116 600Q94 570 73 540T29 479H-4Q26 524 56 569T116 660Z" />
<glyph unicode="&#xef;" glyph-name="idieresis" horiz-adv-x="271" d="M165 0H123V375H165V0ZM191 508Q191 522 201 531T224 541Q237 541 246 532T256 508Q256 494 247 485T224 475Q211 475 201 484T191 508ZM26 508Q26 522 36 531T59 541Q71 541 81 532T91 508Q91
494 81 485T59 475Q46 475 36 484T26 508Z" />
<glyph unicode="&#xf0;" glyph-name="eth" horiz-adv-x="493" d="M94 188Q94 156 106 128T139 79T188 47T250 35Q283 35 311 47T360 81T392 130T404 190Q404 223 392 251T358 300T309 332T248 344Q215 344 187 332T138 298T106 249T94 188ZM140 541Q157 559 174
577T208 614Q163 664 115 703L143 731Q191 693 236 644Q251 661 266 677T296 710Q304 704 310 698T324 686Q308 668 293 651T260 615Q297 570 331 518T390 410T431 300T446 192Q446 151 431 116T390 53T328 11T251 -6Q210 -6 174 8T111 49T69 111T52 187Q52 227
66 263T107 325T169 368T246 384Q284 385 316 370T370 328Q357 378 324 444T231 583Q215 566 200 549T168 515Q161 522 154 528T140 541Z" />
<glyph unicode="&#xf1;" glyph-name="ntilde" horiz-adv-x="523" d="M103 375H141V340Q141 323 141 309T142 278Q162 325 206 354T306 383Q361 383 393 352T427 271V0H385V260Q383 292 362 316T298 342Q268 342 240 332T191 303T158 260T145 205V0H103V375ZM273
738Q258 755 246 760T220 766Q212 766 203 764T184 757T168 741T159 715Q153 716 147 716T134 717Q135 736 143 750T163 773T190 787T219 792Q240 792 257 783T291 756Q307 739 319 734T345 728Q352 728 362 730T381 737T396 753T405 779Q412 778 418 778T431 777Q430
758 422 744T402 721T375 707T346 702Q325 702 308 711T273 738Z" />
<glyph unicode="&#xf2;" glyph-name="ograve" horiz-adv-x="469" d="M36 188Q36 228 51 264T93 326T155 368T232 384Q273 384 309 369T372 327T414 264T430 188Q430 147 415 112T372 50T309 9T232 -7Q191 -7 156 8T94 50T52 111T36 188ZM78 188Q78 156 90 128T123
79T172 46T232 34Q264 34 292 46T341 79T374 128T387 188Q387 220 375 248T341 297T292 330T232 343Q200 343 172 331T123 297T90 248T78 188ZM145 612Q168 579 190 546T235 479H202Q177 512 152 545T102 612H145Z" />
<glyph unicode="&#xf3;" glyph-name="oacute" horiz-adv-x="469" d="M36 188Q36 228 51 264T93 326T155 368T232 384Q273 384 309 369T372 327T414 264T430 188Q430 147 415 112T372 50T309 9T232 -7Q191 -7 156 8T94 50T52 111T36 188ZM78 188Q78 156 90 128T123
79T172 46T232 34Q264 34 292 46T341 79T374 128T387 188Q387 220 375 248T341 297T292 330T232 343Q200 343 172 331T123 297T90 248T78 188ZM231 479Q254 512 276 545T321 612H364Q339 579 314 546T264 479H231Z" />
<glyph unicode="&#xf4;" glyph-name="ocircumflex" horiz-adv-x="469" d="M36 188Q36 228 51 264T93 326T155 368T232 384Q273 384 309 369T372 327T414 264T430 188Q430 147 415 112T372 50T309 9T232 -7Q191 -7 156 8T94 50T52 111T36 188ZM78 188Q78 156 90
128T123 79T172 46T232 34Q264 34 292 46T341 79T374 128T387 188Q387 220 375 248T341 297T292 330T232 343Q200 343 172 331T123 297T90 248T78 188ZM232 660Q262 615 292 570T352 479H319Q297 509 276 539T232 600Q210 570 189 540T145 479H112Q142 524 172
569T232 660Z" />
<glyph unicode="&#xf5;" glyph-name="otilde" horiz-adv-x="469" d="M36 188Q36 228 51 264T93 326T155 368T232 384Q273 384 309 369T372 327T414 264T430 188Q430 147 415 112T372 50T309 9T232 -7Q191 -7 156 8T94 50T52 111T36 188ZM78 188Q78 156 90 128T123
79T172 46T232 34Q264 34 292 46T341 79T374 128T387 188Q387 220 375 248T341 297T292 330T232 343Q200 343 172 331T123 297T90 248T78 188ZM483 491Q468 508 456 513T430 519Q422 519 413 517T394 510T378 494T369 468Q363 469 357 469T344 470Q345 489 353
503T373 526T400 540T429 545Q450 545 467 536T501 509Q517 492 529 487T555 481Q562 481 572 483T591 490T606 506T615 532Q622 531 628 531T641 530Q640 511 632 497T612 474T585 460T556 455Q535 455 518 464T483 491Z" />
<glyph unicode="&#xf6;" glyph-name="odieresis" horiz-adv-x="469" d="M36 188Q36 228 51 264T93 326T155 368T232 384Q273 384 309 369T372 327T414 264T430 188Q430 147 415 112T372 50T309 9T232 -7Q191 -7 156 8T94 50T52 111T36 188ZM78 188Q78 156 90 128T123
79T172 46T232 34Q264 34 292 46T341 79T374 128T387 188Q387 220 375 248T341 297T292 330T232 343Q200 343 172 331T123 297T90 248T78 188ZM285 508Q285 522 295 531T318 541Q331 541 340 532T350 508Q350 494 341 485T318 475Q305 475 295 484T285 508ZM120
508Q120 522 130 531T153 541Q165 541 175 532T185 508Q185 494 175 485T153 475Q140 475 130 484T120 508Z" />
<glyph unicode="&#xf7;" glyph-name="divide" horiz-adv-x="501" d="M428 208H68V249H428V208ZM218 354Q218 368 228 377T251 387Q264 387 273 378T283 354Q283 340 274 331T251 321Q238 321 228 330T218 354ZM218 104Q218 118 228 127T251 137Q264 137 273 128T283
104Q283 90 274 81T251 71Q238 71 228 80T218 104Z" />
<glyph unicode="&#xf8;" glyph-name="oslash" horiz-adv-x="468" d="M78 188Q78 158 88 132T117 85Q167 144 215 202T314 319Q297 330 276 336T232 343Q199 343 171 331T123 298T90 249T78 188ZM232 34Q265 34 293 46T343 79T376 128T388 188Q388 221 375 250T339
300Q289 240 240 182T140 64Q179 34 232 34ZM36 188Q36 228 51 264T93 326T155 367T232 383Q263 383 290 375T341 351Q349 361 358 370T375 390Q381 385 386 380T398 369Q390 360 382 351T366 331Q395 305 412 268T430 188Q430 147 415 112T372 50T309 9T232 -7Q198
-7 168 3T113 33Q103 21 93 9T73 -15Q67 -10 61 -5T49 5Q60 17 69 29T90 53Q64 79 50 113T36 188Z" />
<glyph unicode="&#xf9;" glyph-name="ugrave" horiz-adv-x="529" d="M427 -4H385V52L388 97Q368 49 324 21T224 -8Q169 -8 137 23T103 104V375H145V115Q147 83 168 59T232 33Q262 33 290 43T339 72T372 115T385 170V375H427V-4ZM199 612Q222 579 244 546T289 479H256Q231
512 206 545T156 612H199Z" />
<glyph unicode="&#xfa;" glyph-name="uacute" horiz-adv-x="529" d="M427 -4H385V52L388 97Q368 49 324 21T224 -8Q169 -8 137 23T103 104V375H145V115Q147 83 168 59T232 33Q262 33 290 43T339 72T372 115T385 170V375H427V-4ZM231 479Q254 512 276 545T321 612H364Q339
579 314 546T264 479H231Z" />
<glyph unicode="&#xfb;" glyph-name="ucircumflex" horiz-adv-x="529" d="M427 -4H385V52L388 97Q368 49 324 21T224 -8Q169 -8 137 23T103 104V375H145V115Q147 83 168 59T232 33Q262 33 290 43T339 72T372 115T385 170V375H427V-4ZM266 660Q296 615 326 570T386
479H353Q331 509 310 539T266 600Q244 570 223 540T179 479H146Q176 524 206 569T266 660Z" />
<glyph unicode="&#xfc;" glyph-name="udieresis" horiz-adv-x="529" d="M427 -4H385V52L388 97Q368 49 324 21T224 -8Q169 -8 137 23T103 104V375H145V115Q147 83 168 59T232 33Q262 33 290 43T339 72T372 115T385 170V375H427V-4ZM311 508Q311 522 321 531T344
541Q357 541 366 532T376 508Q376 494 367 485T344 475Q331 475 321 484T311 508ZM146 508Q146 522 156 531T179 541Q191 541 201 532T211 508Q211 494 201 485T179 475Q166 475 156 484T146 508Z" />
<glyph unicode="&#xfd;" glyph-name="yacute" horiz-adv-x="488" d="M147 -250H103Q134 -188 165 -127T227 -2Q179 92 133 186T38 375H82Q124 291 168 207T249 38Q287 123 330 207T416 375H460Q382 218 304 63T147 -250ZM241 479Q264 512 286 545T331 612H374Q349
579 324 546T274 479H241Z" />
<glyph unicode="&#xfe;" glyph-name="thorn" horiz-adv-x="557" d="M419 187Q419 220 407 248T375 296T326 329T264 341Q231 341 203 329T154 297T121 248T109 187Q109 155 121 127T153 77T202 44T264 32Q297 32 325 44T374 77T407 126T419 187ZM461 187Q461 147
446 112T404 50T341 8T264 -8Q233 -8 207 0T161 21T126 51T105 85Q106 75 107 65T109 44V-250H67V750H109V337Q107 324 106 311T104 285Q110 303 125 320T161 350T208 372T264 381Q305 381 341 366T403 324T445 263T461 187Z" />
<glyph unicode="&#xff;" glyph-name="ydieresis" horiz-adv-x="488" d="M147 -250H103Q134 -188 165 -127T227 -2Q179 92 133 186T38 375H82Q124 291 168 207T249 38Q287 123 330 207T416 375H460Q382 218 304 63T147 -250ZM305 508Q305 522 315 531T338 541Q351
541 360 532T370 508Q370 494 361 485T338 475Q325 475 315 484T305 508ZM140 508Q140 522 150 531T173 541Q185 541 195 532T205 508Q205 494 195 485T173 475Q160 475 150 484T140 508Z" />
</font>
</defs>
</svg>
